<svg height="512" viewBox="0 0 60 60" width="512" xmlns="http://www.w3.org/2000/svg"><g id="099---Targeted-Sales"><path id="Shape" d="m58 48v-36c0-2.76142375-2.2385763-5-5-5h-10.33c-2.7506004-4.34031825-7.5315017-6.97061023-12.67-6.97061023s-9.9193996 2.63029198-12.67 6.97061023h-10.33c-2.76142375 0-5 2.23857625-5 5v36c-1.1045695 0-2 .8954305-2 2v3c0 3.8659932 3.13400675 7 7 7h46c3.8659932 0 7-3.1340068 7-7v-3c0-1.1045695-.8954305-2-2-2zm-28-46c7.1797017 0 13 5.82029825 13 13 0 7.1797017-5.8202983 13-13 13s-13-5.8202983-13-13c0-7.17970175 5.8202983-13 13-13zm-26 10c0-1.6568542 1.34314575-3 3-3h9.26c-2.7536494 6.2873367-.8883413 13.6416375 4.5290374 17.8565155s13.0045465 4.214878 18.4219252 0 7.2826868-11.5691788 4.5290374-17.8565155h9.26c1.6568542 0 3 1.3431458 3 3v36h-52zm17 38h18v1c0 1.1045695-.8954305 2-2 2h-14c-1.1045695 0-2-.8954305-2-2zm37 3c0 2.7614237-2.2385763 5-5 5h-46c-2.76142375 0-5-2.2385763-5-5v-3h17v1c0 2.209139 1.790861 4 4 4h14c2.209139 0 4-1.790861 4-4v-1h17z"/><path id="Shape" d="m54 44v-31c0-1.1045695-.8954305-2-2-2h-3c-.5522847 0-1 .4477153-1 1s.4477153 1 1 1h3v31h-44v-31h3c.5522847 0 1-.4477153 1-1s-.4477153-1-1-1h-3c-1.1045695 0-2 .8954305-2 2v31c0 1.1045695.8954305 2 2 2h44c1.1045695 0 2-.8954305 2-2z"/><path id="Shape" d="m6 54c-.55228475 0-1-.4477153-1-1s.44771525-1 1-1 1 .4477153 1 1-.44771525 1-1 1z"/><path id="Shape" d="m9 54c-.55228475 0-1-.4477153-1-1s.44771525-1 1-1 1 .4477153 1 1-.44771525 1-1 1z"/><path id="Shape" d="m15 52h-3c-.5522847 0-1 .4477153-1 1s.4477153 1 1 1h3c.5522847 0 1-.4477153 1-1s-.4477153-1-1-1z"/><path id="Shape" d="m19 16h1.05c.4571611 4.7683924 4.2316076 8.5428389 9 9v1c0 .5522847.4477153 1 1 1s1-.4477153 1-1v-1c4.7488965-.4796113 8.4968522-4.2485053 8.95-9h1c.5522847 0 1-.4477153 1-1s-.4477153-1-1-1h-1c-.4796113-4.74889645-4.2485053-8.49685215-9-8.95v-1.05c0-.55228475-.4477153-1-1-1s-1 .44771525-1 1v1c-4.7488965.47961133-8.4968522 4.24850533-8.95 9h-1.05c-.5522847 0-1 .4477153-1 1s.4477153 1 1 1zm11-1c1.5720263.0031431 3.0510446.7454277 3.9930032 2.0039945s1.2371682 2.8868582.7969968 4.3960055c-2.8403625 2.1233496-6.7396375 2.1233496-9.58 0-.4401714-1.5091473-.1449618-3.1374387.7969968-4.3960055s2.4209769-2.0008514 3.9930032-2.0039945zm-3-5c0-1.65685425 1.3431458-3 3-3s3 1.34314575 3 3c0 1.6568542-1.3431458 3-3 3s-3-1.3431458-3-3zm9.92 9c-.3224546-2.2311356-1.6996899-4.1704317-3.7-5.21 1.5245647-1.253461 2.1374897-3.3057713 1.55-5.19 3.2460916 2.4225306 4.1694324 6.8889236 2.15 10.4zm-11.69-10.4c-.5817942 1.884259.0301814 3.9333903 1.55 5.19-2.0003101 1.0395683-3.3775454 2.9788644-3.7 5.21-2.0194324-3.5110764-1.0960916-7.9774694 2.15-10.4z"/><path id="Shape" d="m11 37v3c-.5522847 0-1 .4477153-1 1s.4477153 1 1 1h38c.5522847 0 1-.4477153 1-1s-.4477153-1-1-1v-10c0-1.1045695-.8954305-2-2-2h-4c-1.1045695 0-2 .8954305-2 2v10h-2v-3c0-1.1045695-.8954305-2-2-2h-4c-1.1045695 0-2 .8954305-2 2v3h-2v-6c0-1.1045695-.8954305-2-2-2h-4c-1.1045695 0-2 .8954305-2 2v6h-2v-3c0-1.1045695-.8954305-2-2-2h-4c-1.1045695 0-2 .8954305-2 2zm32-7h4v10h-4zm-10 7h4v3h-4zm-10-3h4v6h-4zm-10 3h4v3h-4z"/></g></svg>